<?xml version="1.0" encoding="UTF-8"?>
<!DOCTYPE svg PUBLIC "-//W3C//DTD SVG 1.1//EN" "http://www.w3.org/Graphics/SVG/1.1/DTD/svg11.dtd">
<!-- Creator: CorelDRAW X6 -->
<svg xmlns="http://www.w3.org/2000/svg" xml:space="preserve" width="100%" height="100%" version="1.1" style="shape-rendering:geometricPrecision; text-rendering:geometricPrecision; image-rendering:optimizeQuality; fill-rule:evenodd; clip-rule:evenodd"
viewBox="0 0 500 500"
 xmlns:xlink="http://www.w3.org/1999/xlink">
 <defs>
  <style type="text/css">
   <![CDATA[
    .str1 {stroke:#434242;stroke-width:10}
    .str2 {stroke:#008BFF;stroke-width:20;stroke-linecap:round}
    .fil2 {fill:none}
    .fil1 {fill:url(#id0)}
   ]]>
  </style>
  <linearGradient id="id0" gradientUnits="userSpaceOnUse" x1="250.005" y1="156.797" x2="250.005" y2="344.723">
   <stop offset="0" style="stop-color:#FCFCFD"/>
   <stop offset="1" style="stop-color:#EDEDED"/>
  </linearGradient>
 </defs>
 <g id="Layer_x0020_1">
  <metadata id="CorelCorpID_0Corel-Layer"/>
  <path class="fil1 str1" d="M123 55l254 0c51,0 93,42 93,94l0 88c0,51 -42,94 -93,94l-116 0 -110 110c-6,6 -11,5 -11,0l0 -99c0,-6 -6,-11 -11,-11l-6 0c-51,0 -93,-43 -93,-94l0 -88c0,-52 42,-94 93,-94z"/>
  <path class="fil2 str2" d="M118 139l198 0m-198 55l248 0m-248 55l138 0"/>
 </g>
</svg>
